<svg xmlns="http://www.w3.org/2000/svg" viewBox="0 0 219.69 137.05"><defs><style>.a{fill:none;stroke:#1d1d1b;stroke-linejoin:round;stroke-width:8px;}.b{fill:#1d1d1b;}</style></defs><title>monolith_stacked</title><polyline class="a" points="81.32 82.06 81.32 21.28 102.09 4 138.37 15.61 138.37 82.06"/><line class="a" x1="102.09" y1="4" x2="102.09" y2="87.73"/><path class="b" d="M2.82,137H0V114.91H2.49L7,130.48l4.44-15.57h2.49V137H11.07V126.43L8,137H5.88L2.82,126.43Z"/><path class="b" d="M39.39,137a5,5,0,0,1-2.55-.57,5.28,5.28,0,0,1-1.44-1.17,7.28,7.28,0,0,1-1.26-4.56v-9.51a7.28,7.28,0,0,1,1.26-4.56,4.78,4.78,0,0,1,.58-.6,4.26,4.26,0,0,1,.84-.55,5.46,5.46,0,0,1,1.13-.42,5.69,5.69,0,0,1,1.44-.17,5,5,0,0,1,2.57.57,5.37,5.37,0,0,1,1.42,1.17,7.28,7.28,0,0,1,1.26,4.56v9.51a7.28,7.28,0,0,1-1.26,4.56A5.35,5.35,0,0,1,42,136.45,5,5,0,0,1,39.39,137Zm0-19.26a5.19,5.19,0,0,0-.74.06,1.67,1.67,0,0,0-.79.38,2.28,2.28,0,0,0-.64,1,6.12,6.12,0,0,0-.25,2v9.51a6.23,6.23,0,0,0,.25,2,2.27,2.27,0,0,0,.64,1,1.66,1.66,0,0,0,.79.38,5.06,5.06,0,0,0,.74.06,5.22,5.22,0,0,0,.72-.06,1.66,1.66,0,0,0,.81-.37,2.27,2.27,0,0,0,.64-1,6.23,6.23,0,0,0,.25-2v-9.51a6.12,6.12,0,0,0-.25-2,2.28,2.28,0,0,0-.64-1,1.67,1.67,0,0,0-.81-.37A5.36,5.36,0,0,0,39.39,117.76Z"/><path class="b" d="M67.11,137H64.29V114.91h2.37l5.4,13.38V114.91h2.85V137h-2.4l-5.4-13.38Z"/><path class="b" d="M100.29,137a5,5,0,0,1-2.55-.57,5.28,5.28,0,0,1-1.44-1.17A7.28,7.28,0,0,1,95,130.72v-9.51a7.28,7.28,0,0,1,1.26-4.56,4.78,4.78,0,0,1,.58-.6,4.26,4.26,0,0,1,.84-.55,5.46,5.46,0,0,1,1.13-.42,5.69,5.69,0,0,1,1.44-.17,5,5,0,0,1,2.57.57,5.37,5.37,0,0,1,1.42,1.17,7.28,7.28,0,0,1,1.26,4.56v9.51a7.28,7.28,0,0,1-1.26,4.56,5.35,5.35,0,0,1-1.42,1.17A5,5,0,0,1,100.29,137Zm0-19.26a5.19,5.19,0,0,0-.74.06,1.67,1.67,0,0,0-.79.38,2.28,2.28,0,0,0-.64,1,6.12,6.12,0,0,0-.25,2v9.51a6.23,6.23,0,0,0,.25,2,2.27,2.27,0,0,0,.64,1,1.66,1.66,0,0,0,.79.38,5.06,5.06,0,0,0,.74.06,5.22,5.22,0,0,0,.72-.06,1.66,1.66,0,0,0,.81-.37,2.27,2.27,0,0,0,.64-1,6.23,6.23,0,0,0,.25-2v-9.51a6.12,6.12,0,0,0-.25-2,2.28,2.28,0,0,0-.64-1,1.67,1.67,0,0,0-.81-.37A5.36,5.36,0,0,0,100.29,117.76Z"/><path class="b" d="M125.19,137V114.91H128V134.2h6.81V137Z"/><path class="b" d="M154.77,137.05V114.94h2.82v22.11Z"/><path class="b" d="M190.44,117.76h-4.83V137h-2.85V117.76h-4.83v-2.85h12.51Z"/><path class="b" d="M219.69,114.94v22.11h-2.85v-9.63h-4.26v9.63h-2.82V114.94h2.82v9.63h4.26v-9.63Z"/></svg>