<svg xmlns="http://www.w3.org/2000/svg" viewBox="0 0 306.33 87.73"><defs><style>.a{fill:none;stroke:#1d1d1b;stroke-linejoin:round;stroke-width:8px;}.b{fill:#1d1d1b;}</style></defs><title>monolith_inline</title><polyline class="a" points="4 82.06 4 21.28 24.77 4 61.05 15.61 61.05 82.06"/><line class="a" x1="24.77" y1="4" x2="24.77" y2="87.73"/><path class="b" d="M89.47,56.9H86.65V34.79h2.49l4.47,15.57L98,34.79h2.49V56.9H97.72V46.31L94.66,56.9H92.53L89.47,46.31Z"/><path class="b" d="M126,56.9a5,5,0,0,1-2.55-.57A5.28,5.28,0,0,1,122,55.16a7.28,7.28,0,0,1-1.26-4.56V41.09A7.28,7.28,0,0,1,122,36.53a4.78,4.78,0,0,1,.58-.6,4.26,4.26,0,0,1,.84-.55A5.46,5.46,0,0,1,124.6,35a5.69,5.69,0,0,1,1.44-.17,5,5,0,0,1,2.57.57A5.37,5.37,0,0,1,130,36.53a7.28,7.28,0,0,1,1.26,4.56V50.6A7.28,7.28,0,0,1,130,55.16a5.35,5.35,0,0,1-1.42,1.17A5,5,0,0,1,126,56.9Zm0-19.26a5.19,5.19,0,0,0-.74.06,1.67,1.67,0,0,0-.79.38,2.28,2.28,0,0,0-.64,1,6.12,6.12,0,0,0-.25,2V50.6a6.23,6.23,0,0,0,.25,2,2.27,2.27,0,0,0,.64,1,1.66,1.66,0,0,0,.79.38,5.06,5.06,0,0,0,.74.06,5.22,5.22,0,0,0,.72-.06,1.66,1.66,0,0,0,.81-.37,2.27,2.27,0,0,0,.64-1,6.23,6.23,0,0,0,.25-2V41.09a6.12,6.12,0,0,0-.25-2,2.28,2.28,0,0,0-.64-1,1.67,1.67,0,0,0-.81-.37A5.36,5.36,0,0,0,126,37.64Z"/><path class="b" d="M153.76,56.9h-2.82V34.79h2.37l5.4,13.38V34.79h2.85V56.9h-2.4l-5.4-13.38Z"/><path class="b" d="M186.94,56.9a5,5,0,0,1-2.55-.57,5.28,5.28,0,0,1-1.44-1.17,7.28,7.28,0,0,1-1.26-4.56V41.09a7.28,7.28,0,0,1,1.26-4.56,4.78,4.78,0,0,1,.58-.6,4.26,4.26,0,0,1,.84-.55,5.46,5.46,0,0,1,1.13-.42,5.69,5.69,0,0,1,1.44-.17,5,5,0,0,1,2.57.57,5.37,5.37,0,0,1,1.42,1.17,7.28,7.28,0,0,1,1.26,4.56V50.6a7.28,7.28,0,0,1-1.26,4.56,5.35,5.35,0,0,1-1.42,1.17A5,5,0,0,1,186.94,56.9Zm0-19.26a5.19,5.19,0,0,0-.74.06,1.67,1.67,0,0,0-.79.38,2.28,2.28,0,0,0-.64,1,6.12,6.12,0,0,0-.25,2V50.6a6.23,6.23,0,0,0,.25,2,2.27,2.27,0,0,0,.64,1,1.66,1.66,0,0,0,.79.38,5.06,5.06,0,0,0,.74.06,5.22,5.22,0,0,0,.72-.06,1.66,1.66,0,0,0,.81-.37,2.27,2.27,0,0,0,.64-1,6.23,6.23,0,0,0,.25-2V41.09a6.12,6.12,0,0,0-.25-2,2.28,2.28,0,0,0-.64-1,1.67,1.67,0,0,0-.81-.37A5.36,5.36,0,0,0,186.94,37.64Z"/><path class="b" d="M211.84,56.9V34.79h2.82V54.08h6.81V56.9Z"/><path class="b" d="M241.42,56.93V34.82h2.82V56.93Z"/><path class="b" d="M277.08,37.64h-4.83V56.9h-2.85V37.64h-4.83V34.79h12.51Z"/><path class="b" d="M306.33,34.82V56.93h-2.85V47.3h-4.26v9.63h-2.82V34.82h2.82v9.63h4.26V34.82Z"/></svg>